<svg xmlns="http://www.w3.org/2000/svg" xmlns:xlink="http://www.w3.org/1999/xlink" preserveAspectRatio="xMidYMid" width="299.97" height="299.97" viewBox="0 0 330 330">
  <defs>
    <style>
      .cls-1 {
        fill: #000;
        fill-rule: evenodd;
      }
    </style>
  </defs>
  <path d="M181.521,252.359 C177.172,253.989 173.412,256.435 170.242,259.697 C164.989,265.043 162.360,271.655 162.360,279.536 C162.360,286.603 165.125,292.854 170.650,298.289 C177.988,305.447 188.133,309.024 201.089,309.024 C214.223,309.024 226.001,305.583 236.420,298.697 C248.650,290.454 254.765,280.987 254.765,270.296 C254.765,264.771 253.087,258.837 249.737,252.495 C246.837,247.150 243.303,241.352 239.138,235.101 C234.789,228.578 231.209,222.735 228.402,217.571 C225.050,211.140 223.375,204.889 223.375,198.819 C223.375,190.485 226.545,181.924 232.887,173.136 C240.133,162.991 250.098,154.702 262.782,148.268 C272.203,143.467 280.040,141.066 286.291,141.066 C288.646,141.066 290.684,141.701 292.406,142.968 C294.580,144.599 295.667,146.729 295.667,149.355 C295.667,156.150 290.232,164.078 279.361,173.136 C270.936,180.202 261.241,185.684 250.280,189.578 C244.301,191.663 241.312,194.381 241.312,197.732 C241.312,199.182 241.855,200.496 242.942,201.672 C244.573,203.394 246.429,204.254 248.514,204.254 C251.684,204.254 256.349,202.715 262.510,199.634 C274.830,193.383 285.612,185.321 294.852,175.446 C304.636,164.938 309.528,155.154 309.528,146.094 C309.528,140.297 307.262,135.722 302.734,132.369 C299.018,129.562 294.489,128.156 289.145,128.156 C280.900,128.156 272.339,130.106 263.462,134.000 C252.771,138.803 242.987,145.053 234.110,152.752 C217.349,167.520 208.970,183.374 208.970,200.313 C208.970,207.471 211.053,214.764 215.221,222.191 C218.935,228.897 223.510,236.324 228.946,244.477 C232.479,249.732 235.106,254.081 236.827,257.523 C238.458,260.875 239.273,264.635 239.273,268.801 C239.273,275.596 236.464,281.214 230.848,285.651 C221.880,292.629 211.416,296.115 199.458,296.115 C193.479,296.115 188.540,294.756 184.646,292.038 C180.115,288.777 177.852,284.248 177.852,278.449 C177.852,271.203 181.746,266.175 189.538,263.366 C194.067,261.826 196.333,259.561 196.333,256.571 C196.333,252.586 193.887,250.592 188.995,250.592 C187.001,250.592 184.510,251.182 181.521,252.359 L181.521,252.359 Z" class="cls-1"/>
  <path d="M152.030,162.225 C159.185,150.450 165.912,140.076 172.209,131.107 C178.505,122.138 188.085,109.184 200.950,92.243 C207.833,83.185 211.594,78.246 212.228,77.431 C215.307,73.265 216.849,70.184 216.849,68.190 C216.849,66.832 216.258,65.519 215.082,64.250 C213.812,62.982 212.364,62.347 210.734,62.347 C207.472,62.347 203.621,65.337 199.183,71.316 C196.374,74.940 193.565,78.518 190.758,82.051 C180.520,95.188 166.115,115.798 147.545,143.880 C134.589,163.448 122.451,185.554 111.127,210.194 C107.414,218.167 105.556,223.830 105.556,227.180 C105.556,229.898 106.418,232.480 108.138,234.926 C109.951,237.554 112.261,238.867 115.068,238.867 C118.962,238.867 123.945,237.508 130.016,234.790 C139.074,230.713 145.189,228.178 148.361,227.180 C157.058,224.734 164.077,223.511 169.423,223.511 C170.328,223.511 171.506,223.647 172.957,223.919 C174.676,224.191 175.991,224.327 176.897,224.327 C178.800,224.327 180.520,223.558 182.061,222.016 C183.600,220.477 184.371,218.711 184.371,216.717 C184.371,211.644 180.974,209.107 174.180,209.107 C165.120,209.107 150.127,212.324 129.200,218.755 C128.022,219.118 126.211,219.662 123.765,220.386 C128.566,204.714 137.986,185.326 152.030,162.225 L152.030,162.225 Z" class="cls-1"/>
  <path d="M169.024,34.606 C171.107,34.606 173.689,34.653 176.770,34.742 C179.849,34.925 182.295,35.014 184.108,35.014 C190.448,35.014 193.620,32.615 193.620,27.812 C193.620,25.185 192.261,23.238 189.544,21.969 C186.735,20.701 181.707,20.066 174.460,20.066 C149.093,20.066 125.449,24.143 103.526,32.296 C98.362,34.199 95.780,37.052 95.780,40.857 C95.780,42.488 96.233,43.894 97.139,45.070 C98.587,46.883 100.265,47.788 102.167,47.788 C103.978,47.788 106.380,47.199 109.369,46.021 C116.164,43.303 128.258,40.269 145.652,36.916 C141.575,48.242 135.776,62.238 128.258,78.906 C112.403,113.785 97.320,141.733 83.007,162.749 C71.773,179.328 61.401,187.617 51.888,187.617 C47.086,187.617 43.372,185.398 40.746,180.958 C38.389,176.882 37.212,172.126 37.212,166.690 C37.212,148.935 45.546,129.140 62.216,107.307 C67.108,100.967 69.554,97.115 69.554,95.756 C69.554,94.580 69.191,93.537 68.467,92.631 C67.380,91.272 66.201,90.593 64.934,90.593 C63.031,90.593 59.995,92.542 55.829,96.436 C47.132,104.500 40.019,113.694 34.495,124.021 C25.707,140.600 21.313,156.499 21.313,171.718 C21.313,178.512 23.035,184.719 26.477,190.335 C30.915,197.584 37.121,201.206 45.094,201.206 C54.695,201.206 64.978,196.813 75.941,188.025 C89.258,177.154 102.936,159.263 116.979,134.349 C131.020,109.256 146.013,76.052 161.958,34.742 C165.128,34.653 167.483,34.606 169.024,34.606 L169.024,34.606 Z" class="cls-1"/>
</svg>
